<svg width="320" height="109" xmlns="http://www.w3.org/2000/svg" stroke="null" style="vector-effect: non-scaling-stroke;" class="css-k1x8l0" id="hhadagbd"><defs id="SvgjsDefs4490"></defs><g id="SvgjsG4491" featurekey="rZF8Vg-0" transform="matrix(1.3678206296595798,0,0,1.3678206296595798,-18.61467123079959,-13.992804415278908)" fill="#111"><g xmlns="http://www.w3.org/2000/svg"><path fill-rule="evenodd" clip-rule="evenodd" d="M80.11,49.695c0.003,5.951,1.481,10.771,3.303,10.771   c1.823,0,3.302-4.824,3.305-10.768c-0.003-5.951-1.479-10.773-3.303-10.773C81.591,38.926,80.107,43.748,80.11,49.695z"></path><path fill-rule="evenodd" clip-rule="evenodd" d="M39.138,14.154c-15.075,6.26-25.529,19.93-25.529,35.779   c-0.004,15.852,10.454,29.52,25.536,35.777C30.504,78.232,24.764,65,24.764,49.934S30.508,21.637,39.138,14.154z"></path><path fill-rule="evenodd" clip-rule="evenodd" d="M49.349,10.23c-7.066,0-12.803,17.854-12.803,39.857   c0,22.016,5.736,39.859,12.808,39.861c3.491-0.002,6.66-4.367,8.969-11.438c1.954,4.756,4.414,7.598,7.084,7.598   c6.367,0.002,11.532-16.066,11.527-35.883c0.005-19.816-5.156-35.887-11.521-35.879c-2.651,0-5.093,2.797-7.041,7.484   C56.057,14.668,52.871,10.234,49.349,10.23z M75.225,50.227c0.005,11.121-2.764,20.143-6.174,20.143   c-3.412,0-6.176-9.023-6.176-20.139c0-11.127,2.764-20.146,6.176-20.15C72.465,30.084,75.229,39.102,75.225,50.227z M57.792,23.318   c-2.395,6.576-3.907,16.191-3.907,26.908c-0.001,10.623,1.484,20.166,3.841,26.736c-1.15,1.559-2.418,2.424-3.748,2.424   c-5.202-0.004-9.414-13.117-9.414-29.299c0-16.174,4.212-29.293,9.407-29.293C55.333,20.797,56.626,21.701,57.792,23.318z"></path></g></g><g id="SvgjsG4492" featurekey="6VBqdG-0" transform="matrix(2.6455024319197693,0,0,2.6455024319197693,118.14815132519342,20.761905386634673)" fill="#111"><path d="M5.62 5.76 c2.3 0 3.88 1.48 4.54 2.92 l-1.64 0.94 c-0.7 -1.18 -1.6 -1.9 -2.9 -1.9 s-2.22 0.76 -2.22 1.8 c0 0.98 0.62 1.58 1.96 2.08 l0.98 0.36 c2.78 1.02 4.2 2.22 4.2 4.32 c0 2.58 -2.46 4.02 -4.84 4.02 c-2.44 0 -4.4 -1.46 -5 -3.44 l1.72 -0.88 c0.5 1.28 1.58 2.32 3.28 2.32 c1.4 0 2.56 -0.74 2.56 -2 c0 -1.34 -0.9 -1.88 -2.5 -2.48 l-0.96 -0.36 c-2.1 -0.78 -3.58 -1.84 -3.58 -4.02 c0 -2.12 1.92 -3.68 4.4 -3.68 z M17.32 9.42 c1.88 0 3.5 0.84 4.44 2.52 l-1.68 0.76 c-0.62 -0.84 -1.46 -1.36 -2.74 -1.36 c-1.54 0 -3.3 1.16 -3.3 3.48 c0 2.3 1.76 3.44 3.3 3.44 c1.28 0 2.12 -0.5 2.74 -1.34 l1.7 0.76 c-0.96 1.68 -2.56 2.5 -4.46 2.5 c-2.36 0 -5.38 -1.74 -5.38 -5.36 c0 -3.6 3.02 -5.4 5.38 -5.4 z M29.200000000000003 9.44 c2 0 3.96 1.3 3.96 4.54 l0 6.02 l-2.16 0 l0 -5.9 c0 -1.98 -0.94 -2.76 -2.28 -2.76 c-1.72 0 -2.84 1.6 -3.08 2.62 l0 6.04 l-2.16 0 l0 -14.14 l2.16 0 l0 5.94 c0.2 -0.64 1.4 -2.36 3.56 -2.36 z M40.14 9.42 c2.36 0 5.56 1.8 5.06 6.16 l-8.28 0 c0.32 1.86 1.8 2.78 3.48 2.78 c1.38 0 2.12 -0.36 2.88 -0.96 l1.22 1.16 c-0.92 1.04 -2.24 1.64 -4.16 1.64 c-2.64 0 -5.58 -1.8 -5.58 -5.38 c0 -3.6 3.02 -5.4 5.38 -5.4 z M40.14 11.28 c-1.34 0 -2.84 0.9 -3.2 2.72 l6.36 0 c-0.24 -1.82 -1.82 -2.72 -3.16 -2.72 z M60 9.44 c2 0 3.98 1.28 3.98 4.66 l0 5.9 l-2.16 0 l0 -5.9 c0 -1.78 -0.9 -2.76 -2.42 -2.76 c-1.58 0 -2.54 1.32 -2.8 2.62 l0 6.04 l-2.16 0 l0 -5.9 c0 -1.78 -1.1 -2.76 -2.44 -2.76 c-1.66 0 -2.56 1.32 -2.78 2.62 l0 6.04 l-2.16 0 l0 -10.4 l2.16 0 l0 2.26 c0.08 -0.66 1.1 -2.42 3.28 -2.42 c1.42 0 2.98 0.78 3.7 2.5 c0.32 -0.9 1.56 -2.5 3.8 -2.5 z M70.75999999999999 9.42 c1.88 0 3.12 1.12 3.38 1.8 l0 -1.62 l2.16 0 l0 10.4 l-2.16 0 l0 -1.72 c-0.26 0.84 -1.5 1.92 -3.38 1.92 c-2.36 0 -5.18 -1.76 -5.18 -5.4 c0 -3.58 2.82 -5.38 5.18 -5.38 z M71.03999999999999 11.34 c-1.62 0 -3.36 1.16 -3.36 3.46 c0 2.32 1.74 3.48 3.36 3.48 s3.2 -1.14 3.2 -3.48 c0 -2.32 -1.58 -3.46 -3.2 -3.46 z"></path></g></svg>
